<svg xmlns="http://www.w3.org/2000/svg" xmlns:xlink="http://www.w3.org/1999/xlink" width="500" zoomAndPan="magnify" viewBox="0 0 375 374.999991" height="500" preserveAspectRatio="xMidYMid meet" version="1.0"><defs><clipPath id="e1633f08e1"><path d="M 56 94 L 281 94 L 281 319 L 56 319 Z M 56 94 " clip-rule="nonzero"/></clipPath><clipPath id="90e4d999d0"><path d="M 77.972656 318.796875 L 56.1875 297.015625 L 258.421875 94.78125 L 280.203125 116.566406 Z M 77.972656 318.796875 " clip-rule="nonzero"/></clipPath><clipPath id="eba9064a67"><path d="M 35 295 L 80 295 L 80 340 L 35 340 Z M 35 295 " clip-rule="nonzero"/></clipPath><clipPath id="edb75cb5f0"><path d="M 46.871094 349.894531 L 25.089844 328.113281 L 57.335938 295.863281 L 79.121094 317.648438 Z M 46.871094 349.894531 " clip-rule="nonzero"/></clipPath><clipPath id="d223a18b64"><path d="M 35.980469 339.003906 L 57.273438 295.929688 L 79.054688 317.710938 Z M 35.980469 339.003906 " clip-rule="nonzero"/></clipPath><clipPath id="3edef54893"><path d="M 94 110 L 265 110 L 265 281 L 94 281 Z M 94 110 " clip-rule="nonzero"/></clipPath><clipPath id="05445e66f9"><path d="M 164.898438 68.601562 L 306.496094 210.199219 L 235.964844 280.734375 L 94.367188 139.136719 Z M 164.898438 68.601562 " clip-rule="nonzero"/></clipPath><clipPath id="187ea7ecf2"><path d="M 164.898438 68.601562 L 306.496094 210.199219 L 235.964844 280.734375 L 94.367188 139.136719 Z M 164.898438 68.601562 " clip-rule="nonzero"/></clipPath><clipPath id="f33f5b69df"><path d="M 143 39 L 336 39 L 336 232 L 143 232 Z M 143 39 " clip-rule="nonzero"/></clipPath><clipPath id="7bbef9f191"><path d="M 186.851562 231.679688 L 143.3125 188.140625 L 292.390625 39.058594 L 335.929688 82.597656 Z M 186.851562 231.679688 " clip-rule="nonzero"/></clipPath><clipPath id="f8568427de"><path d="M 241 9 L 366 9 L 366 134 L 241 134 Z M 241 9 " clip-rule="nonzero"/></clipPath><clipPath id="db22809bef"><path d="M 241.6875 31.09375 L 263.054688 9.726562 L 365.273438 111.949219 L 343.910156 133.3125 Z M 241.6875 31.09375 " clip-rule="nonzero"/></clipPath></defs><g clip-path="url(#e1633f08e1)"><g clip-path="url(#90e4d999d0)"><path fill="#8c8c8c" d="M 77.972656 318.796875 L 56.1875 297.015625 L 258.445312 94.761719 L 280.226562 116.542969 Z M 77.972656 318.796875 " fill-opacity="1" fill-rule="nonzero"/></g></g><g clip-path="url(#eba9064a67)"><g clip-path="url(#edb75cb5f0)"><g clip-path="url(#d223a18b64)"><path fill="#8c8c8c" d="M 46.871094 349.894531 L 25.089844 328.113281 L 57.253906 295.949219 L 79.035156 317.730469 Z M 46.871094 349.894531 " fill-opacity="1" fill-rule="nonzero"/></g></g></g><g clip-path="url(#3edef54893)"><g clip-path="url(#05445e66f9)"><g clip-path="url(#187ea7ecf2)"><path fill="#8c8c8c" d="M 235.632812 139.308594 C 255.152344 158.832031 264.84375 184.332031 264.84375 209.902344 C 264.84375 235.472656 255.082031 261.039062 235.632812 280.492188 C 212.742188 257.605469 117.40625 162.269531 94.449219 139.308594 C 113.898438 119.859375 139.46875 110.097656 165.039062 110.097656 C 190.609375 110.097656 216.179688 119.859375 235.632812 139.308594 Z M 235.632812 139.308594 " fill-opacity="1" fill-rule="nonzero"/></g></g></g><g clip-path="url(#f33f5b69df)"><g clip-path="url(#7bbef9f191)"><path fill="#8c8c8c" d="M 186.851562 231.679688 L 143.3125 188.140625 L 292.464844 38.984375 L 336.003906 82.523438 Z M 186.851562 231.679688 " fill-opacity="1" fill-rule="nonzero"/></g></g><g clip-path="url(#f8568427de)"><g clip-path="url(#db22809bef)"><path fill="#8c8c8c" d="M 241.6875 31.09375 L 263.054688 9.726562 L 365.285156 111.960938 L 343.917969 133.324219 Z M 241.6875 31.09375 " fill-opacity="1" fill-rule="nonzero"/></g></g></svg>