<svg xmlns="http://www.w3.org/2000/svg" xmlns:xlink="http://www.w3.org/1999/xlink" width="500" zoomAndPan="magnify" viewBox="0 0 375 374.999991" height="500" preserveAspectRatio="xMidYMid meet" version="1.0"><defs><clipPath id="8013a75f0e"><path d="M 37.5 37.5 L 337.5625 37.5 L 337.5625 56.210938 L 37.5 56.210938 Z M 37.5 37.5 " clip-rule="nonzero"/></clipPath><clipPath id="dc65ee50a9"><path d="M 46.855469 37.5 L 328.144531 37.5 C 330.625 37.5 333.003906 38.484375 334.757812 40.242188 C 336.515625 41.996094 337.5 44.375 337.5 46.855469 C 337.5 49.339844 336.515625 51.71875 334.757812 53.472656 C 333.003906 55.226562 330.625 56.210938 328.144531 56.210938 L 46.855469 56.210938 C 44.375 56.210938 41.996094 55.226562 40.242188 53.472656 C 38.484375 51.71875 37.5 49.339844 37.5 46.855469 C 37.5 44.375 38.484375 41.996094 40.242188 40.242188 C 41.996094 38.484375 44.375 37.5 46.855469 37.5 Z M 46.855469 37.5 " clip-rule="nonzero"/></clipPath><clipPath id="8cc9b10d30"><path d="M 318.78125 37.496094 L 337.496094 37.496094 L 337.496094 337.558594 L 318.78125 337.558594 Z M 318.78125 37.496094 " clip-rule="nonzero"/></clipPath><clipPath id="b1afa1d623"><path d="M 337.496094 46.851562 L 337.496094 328.136719 C 337.496094 330.621094 336.507812 333 334.753906 334.753906 C 333 336.507812 330.621094 337.496094 328.140625 337.496094 C 325.65625 337.496094 323.277344 336.507812 321.523438 334.753906 C 319.769531 333 318.78125 330.621094 318.78125 328.136719 L 318.78125 46.851562 C 318.78125 44.371094 319.769531 41.988281 321.523438 40.234375 C 323.277344 38.480469 325.65625 37.496094 328.140625 37.496094 C 330.621094 37.496094 333 38.480469 334.753906 40.234375 C 336.507812 41.988281 337.496094 44.371094 337.496094 46.851562 Z M 337.496094 46.851562 " clip-rule="nonzero"/></clipPath><clipPath id="068d79844b"><path d="M 193 40 L 334 40 L 334 267 L 193 267 Z M 193 40 " clip-rule="nonzero"/></clipPath><clipPath id="542c67ff9a"><path d="M 337.109375 46.734375 L 206.460938 270.429688 L 190.300781 260.992188 L 320.953125 37.296875 Z M 337.109375 46.734375 " clip-rule="nonzero"/></clipPath><clipPath id="160675ef1c"><path d="M 332.390625 54.8125 L 211.183594 262.339844 C 209.933594 264.480469 207.882812 266.039062 205.480469 266.667969 C 203.082031 267.300781 200.53125 266.949219 198.386719 265.699219 C 196.246094 264.449219 194.6875 262.398438 194.054688 259.996094 C 193.425781 257.597656 193.773438 255.042969 195.027344 252.902344 L 316.234375 45.375 C 317.484375 43.230469 319.535156 41.675781 321.9375 41.042969 C 324.335938 40.414062 326.886719 40.761719 329.03125 42.015625 C 331.171875 43.265625 332.730469 45.316406 333.363281 47.71875 C 333.992188 50.117188 333.644531 52.667969 332.390625 54.8125 Z M 332.390625 54.8125 " clip-rule="nonzero"/></clipPath><clipPath id="009ec962c0"><path d="M 106 40 L 335 40 L 335 179 L 106 179 Z M 106 40 " clip-rule="nonzero"/></clipPath><clipPath id="1473404f92"><path d="M 337.488281 53.757812 L 112.347656 181.902344 L 103.089844 165.640625 L 328.230469 37.492188 Z M 337.488281 53.757812 " clip-rule="nonzero"/></clipPath><clipPath id="7dd5ccfc88"><path d="M 329.355469 58.386719 L 120.488281 177.269531 C 118.332031 178.496094 115.777344 178.816406 113.382812 178.160156 C 110.992188 177.503906 108.957031 175.921875 107.730469 173.765625 C 106.5 171.609375 106.179688 169.050781 106.839844 166.660156 C 107.496094 164.265625 109.074219 162.234375 111.234375 161.003906 L 320.097656 42.121094 C 322.253906 40.894531 324.8125 40.574219 327.203125 41.230469 C 329.597656 41.886719 331.632812 43.46875 332.859375 45.625 C 334.085938 47.78125 334.40625 50.335938 333.75 52.730469 C 333.09375 55.125 331.511719 57.15625 329.355469 58.386719 Z M 329.355469 58.386719 " clip-rule="nonzero"/></clipPath></defs><g clip-path="url(#8013a75f0e)"><g clip-path="url(#dc65ee50a9)"><path fill="#919191" d="M 37.5 37.5 L 337.492188 37.5 L 337.492188 56.210938 L 37.5 56.210938 Z M 37.5 37.5 " fill-opacity="1" fill-rule="nonzero"/></g></g><g clip-path="url(#8cc9b10d30)"><g clip-path="url(#b1afa1d623)"><path fill="#919191" d="M 337.496094 37.496094 L 337.496094 337.484375 L 318.78125 337.484375 L 318.78125 37.496094 Z M 337.496094 37.496094 " fill-opacity="1" fill-rule="nonzero"/></g></g><g clip-path="url(#068d79844b)"><g clip-path="url(#542c67ff9a)"><g clip-path="url(#160675ef1c)"><path fill="#919191" d="M 337.109375 46.734375 L 206.460938 270.429688 L 190.300781 260.992188 L 320.953125 37.296875 Z M 337.109375 46.734375 " fill-opacity="1" fill-rule="nonzero"/></g></g></g><g clip-path="url(#009ec962c0)"><g clip-path="url(#1473404f92)"><g clip-path="url(#7dd5ccfc88)"><path fill="#919191" d="M 337.488281 53.757812 L 112.347656 181.902344 L 103.089844 165.640625 L 328.230469 37.492188 Z M 337.488281 53.757812 " fill-opacity="1" fill-rule="nonzero"/></g></g></g><path stroke-linecap="round" transform="matrix(0.191941, 0.725023, -0.725023, 0.191941, 156.408378, 25.036051)" fill="none" stroke-linejoin="miter" d="M 17.918551 46.787326 C 64.887145 1.044655 111.856019 1.071066 158.823839 46.871594 " stroke="#919191" stroke-width="25" stroke-opacity="1" stroke-miterlimit="4"/><path stroke-linecap="round" transform="matrix(0.565289, 0.492897, -0.492897, 0.565289, 170.162763, 112.420217)" fill="none" stroke-linejoin="miter" d="M 17.917492 46.35046 C 60.258373 1.187992 102.601119 1.216458 144.945729 46.435858 " stroke="#919191" stroke-width="25" stroke-opacity="1" stroke-miterlimit="4"/><path stroke-linecap="round" transform="matrix(0.681067, 0.314083, -0.314083, 0.681067, 234.535302, 171.210488)" fill="none" stroke-linejoin="miter" d="M 17.9171 46.787169 C 64.885024 1.043934 111.853366 1.069714 158.824307 46.869238 " stroke="#919191" stroke-width="25" stroke-opacity="1" stroke-miterlimit="4"/><path stroke-linecap="round" transform="matrix(0.191941, 0.725023, -0.725023, 0.191941, 231.800365, 28.998944)" fill="none" stroke-linejoin="miter" d="M 19.682152 29.390288 C 44.198411 8.176806 68.711675 8.201074 93.226979 29.464426 " stroke="#919191" stroke-width="27" stroke-opacity="1" stroke-miterlimit="4"/><path stroke-linecap="round" transform="matrix(0.565289, 0.492897, -0.492897, 0.565289, 236.637939, 78.966492)" fill="none" stroke-linejoin="miter" d="M 19.591844 29.025823 C 41.578519 8.300014 63.566883 8.323995 85.556432 29.105115 " stroke="#919191" stroke-width="27" stroke-opacity="1" stroke-miterlimit="4"/><path stroke-linecap="round" transform="matrix(0.681067, 0.314083, -0.314083, 0.681067, 272.92106, 113.686003)" fill="none" stroke-linejoin="miter" d="M 19.679754 29.388798 C 44.196116 8.177545 68.715742 8.203305 93.226992 29.46571 " stroke="#919191" stroke-width="27" stroke-opacity="1" stroke-miterlimit="4"/></svg>