<svg xmlns="http://www.w3.org/2000/svg" xmlns:xlink="http://www.w3.org/1999/xlink" width="500" zoomAndPan="magnify" viewBox="0 0 375 374.999991" height="500" preserveAspectRatio="xMidYMid meet" version="1.0"><defs><clipPath id="4af29f2613"><path d="M 37.5 37.5 L 337.5 37.5 L 337.5 337.5 L 37.5 337.5 Z M 37.5 37.5 " clip-rule="nonzero"/></clipPath><clipPath id="2ffd3d7fcb"><path d="M 187.5 37.5 C 104.65625 37.5 37.5 104.65625 37.5 187.5 C 37.5 270.34375 104.65625 337.5 187.5 337.5 C 270.34375 337.5 337.5 270.34375 337.5 187.5 C 337.5 104.65625 270.34375 37.5 187.5 37.5 Z M 187.5 37.5 " clip-rule="nonzero"/></clipPath><clipPath id="64ccb5dee4"><path d="M 178.132812 75 L 196.867188 75 L 196.867188 187.570312 L 178.132812 187.570312 Z M 178.132812 75 " clip-rule="nonzero"/></clipPath><clipPath id="58399616c6"><path d="M 187.5 75 C 189.984375 75 192.367188 75.988281 194.125 77.742188 C 195.882812 79.5 196.867188 81.882812 196.867188 84.367188 L 196.867188 178.132812 C 196.867188 180.617188 195.882812 183 194.125 184.757812 C 192.367188 186.511719 189.984375 187.5 187.5 187.5 C 185.015625 187.5 182.632812 186.511719 180.875 184.757812 C 179.117188 183 178.132812 180.617188 178.132812 178.132812 L 178.132812 84.367188 C 178.132812 81.882812 179.117188 79.5 180.875 77.742188 C 182.632812 75.988281 185.015625 75 187.5 75 Z M 187.5 75 " clip-rule="nonzero"/></clipPath><clipPath id="26055211cd"><path d="M 179 169 L 233 169 L 233 214 L 179 214 Z M 179 169 " clip-rule="nonzero"/></clipPath><clipPath id="87f3f18f78"><path d="M 236.375 201.460938 L 225.59375 216.785156 L 175.304688 181.410156 L 186.085938 166.085938 Z M 236.375 201.460938 " clip-rule="nonzero"/></clipPath><clipPath id="c2645225dd"><path d="M 230.984375 209.125 C 229.554688 211.15625 227.375 212.535156 224.925781 212.964844 C 222.480469 213.390625 219.960938 212.824219 217.929688 211.394531 L 183 186.824219 C 180.96875 185.394531 179.585938 183.214844 179.160156 180.769531 C 178.734375 178.320312 179.296875 175.804688 180.726562 173.769531 C 182.15625 171.738281 184.335938 170.359375 186.785156 169.929688 C 189.230469 169.503906 191.75 170.070312 193.78125 171.5 L 228.710938 196.070312 C 230.742188 197.5 232.125 199.679688 232.550781 202.125 C 232.976562 204.574219 232.414062 207.089844 230.984375 209.125 Z M 230.984375 209.125 " clip-rule="nonzero"/></clipPath></defs><g clip-path="url(#4af29f2613)"><g clip-path="url(#2ffd3d7fcb)"><path stroke-linecap="butt" transform="matrix(0.75, 0, 0, 0.75, 37.500002, 37.499998)" fill="none" stroke-linejoin="miter" d="M 200.00001 0.00000328333 C 89.54167 0.00000328333 -0.00000271667 89.541676 -0.00000271667 200.000016 C -0.00000271667 310.458357 89.54167 400.00003 200.00001 400.00003 C 310.458351 400.00003 400.000024 310.458357 400.000024 200.000016 C 400.000024 89.541676 310.458351 0.00000328333 200.00001 0.00000328333 Z M 200.00001 0.00000328333 " stroke="#919191" stroke-width="50" stroke-opacity="1" stroke-miterlimit="4"/></g></g><g clip-path="url(#64ccb5dee4)"><g clip-path="url(#58399616c6)"><path fill="#919191" d="M 178.132812 75 L 196.867188 75 L 196.867188 187.5 L 178.132812 187.5 Z M 178.132812 75 " fill-opacity="1" fill-rule="nonzero"/></g></g><g clip-path="url(#26055211cd)"><g clip-path="url(#87f3f18f78)"><g clip-path="url(#c2645225dd)"><path fill="#919191" d="M 236.375 201.460938 L 225.59375 216.785156 L 175.367188 181.453125 L 186.144531 166.128906 Z M 236.375 201.460938 " fill-opacity="1" fill-rule="nonzero"/></g></g></g></svg>